<svg width="20" height="20" viewBox="0 0 512 420" fill="none" xmlns="http://www.w3.org/2000/svg">
<g clip-path="url(#clip0_76_2)">
<path d="M511.379 101.124C508.367 92.474 499.717 95.559 497.789 106.52C490.995 145.24 477.984 220.607 471.045 257.013C470.418 260.603 464.01 267.158 460.347 267.036C400.112 264.987 198.634 262.36 198.634 262.36L131.965 69.752L128.182 56.766C127.508 54.983 126.881 53.344 126.495 52.38C122.062 40.839 114.665 33.32 108.377 28.888C102.16 24.431 97.004 22.841 96.281 22.6L96.039 22.528L50.02 11.035C46.936 4.65 37.201 0 25.588 0C11.469 0 0 6.818 0 15.275C0 23.684 11.469 30.527 25.588 30.527C30.166 30.527 34.406 29.756 38.166 28.431L88.859 41.153C89.679 41.419 92.667 42.646 95.992 45.176C99.702 48.043 103.894 52.404 106.545 59.32C110.063 68.501 128.832 120.471 146.639 169.889C155.553 194.61 164.227 218.752 170.709 236.702C176.371 252.556 180.37 263.566 181.238 265.952C181.383 266.748 181.816 269.108 181.792 271.832C181.816 274.747 181.334 278 180.033 280.528C178.732 283.084 176.997 285.178 172.852 287.035C159.986 292.673 152.468 305.225 152.373 318.236C152.276 326.428 155.674 335.128 162.853 341.27C170.009 347.39 180.153 350.666 192.658 350.666C195.983 350.666 200.754 350.666 206.488 350.666L223.451 350.715C209.091 355.269 198.634 368.521 198.634 384.423C198.634 403.986 214.488 419.913 234.149 419.913C253.762 419.913 269.665 403.986 269.665 384.423C269.665 368.569 259.232 355.317 244.895 350.737L261.811 350.761C285.639 350.784 312.624 350.858 338.744 350.93C356.983 350.953 374.765 350.978 390.765 351.05L406.474 351.073C392.716 355.94 382.767 368.951 382.767 384.421C382.767 403.984 398.715 419.911 418.305 419.911C437.943 419.911 453.795 403.984 453.795 384.421C453.795 369.025 444.013 356.062 430.327 351.099L445.916 351.147C451.867 351.147 455.289 351.171 455.289 351.171C455.337 351.171 455.337 351.171 455.337 351.171C456.494 351.171 457.217 351.171 457.217 351.171C462.59 351.171 466.904 346.858 466.904 341.531C466.953 336.208 462.615 331.87 457.291 331.821C457.291 331.821 233.912 331.315 194.59 331.315C185.289 331.293 180.133 328.955 177.435 326.617C174.737 324.232 173.725 321.557 173.628 318.232C173.531 312.931 177.242 306.86 182.399 304.763C190.663 301.293 196.325 295.27 199.313 289.053C200.758 286.09 201.626 283.174 202.204 280.356C203.987 280.765 205.819 281.054 207.747 281.103L460.737 286.258C460.976 286.258 461.075 286.258 461.195 286.258C461.314 286.258 461.435 286.258 461.508 286.258H462.664C462.929 286.258 463.05 286.258 463.144 286.258C468.783 286.258 473.988 284.259 478.082 280.982C482.13 277.681 485.311 272.983 486.274 267.25L510.921 120.684C511.234 118.877 511.379 117.07 511.379 115.288C511.379 111.461 512.776 104.594 511.379 101.124Z" fill="white"/>
</g>
<defs>
<clipPath id="clip0_76_2">
<rect width="512" height="419.916" fill="white"/>
</clipPath>
</defs>
</svg>
