<svg width="6735" height="2358" viewBox="0 0 6735 2358" fill="none" xmlns="http://www.w3.org/2000/svg">
<path d="M1511.99 578.442V1308.12C1511.99 1319.95 1507.95 1331.29 1500.77 1339.65C1493.58 1348.02 1483.83 1352.72 1473.67 1352.72H1275.77C1265.61 1352.71 1255.87 1348.01 1248.69 1339.65C1241.5 1331.29 1237.46 1319.95 1237.46 1308.12V121.264C1237.46 109.436 1241.5 98.0923 1248.68 89.7287C1255.87 81.3652 1265.61 76.6666 1275.77 76.6666H1458.91C1469.07 76.6666 1478.81 81.3652 1486 89.7287C1493.19 98.0923 1497.22 109.436 1497.22 121.264V288.404C1497.22 288.404 1562.69 49.9831 1756.97 49.9831C1756.97 49.9831 1949.14 22.9456 2027.27 271.199C2027.27 271.199 2092.74 49.9831 2291.24 49.9831C2291.24 49.9831 2586.45 29.5526 2586.45 385.09L2588.7 580.9V1310.58C2588.7 1322.41 2584.66 1333.75 2577.48 1342.11C2570.29 1350.48 2560.54 1355.17 2550.38 1355.17H2352.47C2342.31 1355.17 2332.56 1350.47 2325.38 1342.11C2318.2 1333.74 2314.16 1322.4 2314.15 1310.58L2312.34 514.536C2317.97 334.279 2192.68 347.395 2192.68 347.395C2035.01 350.679 2050.18 580.9 2050.18 580.9V1310.58C2050.18 1322.41 2046.15 1333.75 2038.96 1342.11C2031.77 1350.48 2022.03 1355.17 2011.87 1355.17H1813.97C1803.81 1355.17 1794.07 1350.47 1786.88 1342.11C1779.7 1333.74 1775.66 1322.4 1775.65 1310.58V532.547C1775.65 532.547 1787.23 345.743 1646.43 345.743C1646.45 345.743 1507.07 324.448 1511.99 578.442V578.442ZM6613.24 576.26V1305.92C6613.24 1317.74 6609.2 1329.08 6602.01 1337.45C6594.83 1345.81 6585.09 1350.51 6574.93 1350.51L6369.1 1355.15C6358.94 1355.15 6349.2 1350.45 6342.02 1342.09C6334.83 1333.72 6330.79 1322.38 6330.79 1310.56V532.547C6330.79 532.547 6342.36 345.743 6201.58 345.743C6201.58 345.743 6067.12 338.035 6067.12 630.924V1308.1C6067.12 1319.93 6063.08 1331.27 6055.9 1339.63C6048.71 1347.99 6038.97 1352.69 6028.81 1352.7H5830.89C5820.73 1352.69 5810.99 1347.99 5803.8 1339.63C5796.62 1331.27 5792.58 1319.93 5792.58 1308.1V121.264C5792.58 109.437 5796.62 98.0969 5803.8 89.7345C5810.99 81.3721 5820.73 76.6718 5830.89 76.6666H6014.02C6024.19 76.6666 6033.93 81.3652 6041.12 89.7287C6048.3 98.0923 6052.34 109.436 6052.34 121.264V288.404C6052.34 288.404 6117.81 49.9831 6312.09 49.9831C6312.09 49.9831 6520.21 13.2318 6590.3 266.578C6590.32 266.558 6613.24 318.824 6613.24 576.26ZM5184.34 45.0672C4931.27 45.0672 4726.09 293.32 4726.09 711.172C4726.09 1079.06 4884.47 1377.28 5184.34 1377.28C5467.32 1377.28 5642.59 1079.06 5642.59 711.172C5642.59 300.694 5437.43 45.0672 5184.34 45.0672V45.0672ZM5344.07 725.919C5344.07 883.228 5327.18 966.798 5327.18 966.798C5303.14 1133.09 5199.43 1133.33 5184.14 1132.44C5167.63 1133.21 5063.04 1131.48 5041.4 966.798C5041.4 966.798 5024.5 883.228 5024.5 725.919V699.708C5024.5 542.399 5041.4 458.829 5041.4 458.829C5063.04 294.146 5167.65 292.416 5184.14 293.163C5199.43 292.278 5303.14 292.494 5327.18 458.829C5327.18 458.829 5344.07 542.399 5344.07 699.708V725.919ZM4611.22 286.752V116.466C4611.22 104.639 4607.18 93.299 4600 84.9366C4592.81 76.5741 4583.07 71.8739 4572.91 71.8687H3918.77C3908.61 71.8687 3898.86 76.5673 3891.68 84.9308C3884.49 93.2944 3880.45 104.638 3880.45 116.466V285.435C3880.46 297.261 3884.5 308.602 3891.68 316.964C3898.87 325.327 3908.61 330.027 3918.77 330.032H4259.98L3856.11 1011.97C3856.11 1011.97 3840.2 1039.61 3840.72 1070.15V1277.58C3840.72 1277.58 3838.08 1348.7 3907.38 1307.43C3907.38 1307.43 4030.47 1220.87 4236.87 1220.87C4236.87 1220.87 4440.7 1217.92 4576.59 1314.88C4576.59 1314.88 4633 1344.73 4633 1279.1V1098.54C4633 1098.54 4638.12 1050.76 4584.28 1020.93C4584.28 1020.93 4427.87 920.963 4222.76 937.362L4611.22 286.752ZM1084.72 1140.47L1022.77 1030.71C1003.05 989.726 1004.47 943.831 1004.47 943.831V437.513C1012.92 -0.00182211 596.193 37.6933 596.193 37.6933C225.739 37.6933 171.019 373.253 171.019 373.253C155.578 440.718 200.483 442.351 200.483 442.351L381.503 463.725C381.503 463.725 412.368 471.944 423.603 429.176C423.603 429.176 447.44 282.78 580.752 282.78C725.804 282.78 724.301 427.681 724.301 427.681V548.986C434.736 560.254 300.546 653.813 300.546 653.813C121.756 771.795 133.008 1006.13 133.008 1006.13C133.008 1387.91 445.548 1371.51 445.548 1371.51C645.456 1371.51 763.715 1201.11 763.715 1201.11C798.905 1273.24 863.677 1342.02 863.677 1342.02C896.08 1382.92 929.851 1348.59 929.851 1348.59L1076.27 1202.76C1108.64 1174.88 1084.72 1140.47 1084.72 1140.47ZM543.112 1135.75C449.079 1135.75 414.125 1026.99 429.736 920.097C445.363 813.206 526.522 729.203 724.318 731.661V796.649C731.329 1080.55 621.382 1135.75 543.112 1135.75ZM3714.55 1140.47L3652.62 1030.71C3632.9 989.726 3634.31 943.831 3634.31 943.831V437.513C3642.75 -0.00182211 3226.03 37.6933 3226.03 37.6933C2855.57 37.6933 2800.85 373.253 2800.85 373.253C2785.41 440.718 2830.32 442.351 2830.32 442.351L3011.34 463.725C3011.34 463.725 3042.2 471.944 3053.44 429.176C3053.44 429.176 3077.28 282.78 3210.59 282.78C3355.64 282.78 3354.14 427.681 3354.14 427.681V548.986C3064.59 560.254 2930.38 653.813 2930.38 653.813C2751.59 771.795 2762.84 1006.13 2762.84 1006.13C2762.84 1387.91 3075.38 1371.51 3075.38 1371.51C3275.29 1371.51 3393.55 1201.11 3393.55 1201.11C3428.76 1273.24 3493.49 1342.02 3493.49 1342.02C3525.9 1382.92 3559.69 1348.59 3559.69 1348.59L3706.09 1202.76C3738.48 1174.88 3714.55 1140.47 3714.55 1140.47V1140.47ZM3172.95 1135.75C3078.91 1135.75 3043.96 1026.99 3059.57 920.097C3075.2 813.206 3156.36 729.203 3354.14 731.661V796.649C3361.16 1080.55 3251.23 1135.75 3172.95 1135.75Z" fill="black"/>
<path d="M4212.86 2098.83C4212.86 2098.83 4196.31 2132.36 4216.65 2139.85C4216.65 2139.85 4239.62 2150.29 4268.28 2119.34C4268.28 2119.34 4477.24 1906.88 4482.27 1520.05C4482.27 1520.05 4483.81 1471.74 4467.15 1458.53C4467.15 1458.53 4401.69 1391.12 4166.29 1411.63C4166.29 1411.63 3961.09 1427.75 3849.07 1543.51C3849.07 1543.51 3839 1553.76 3839 1566.93C3839 1566.93 3836.58 1595.39 3898.16 1583.06C3898.16 1583.06 4103.34 1549.33 4225.45 1566.93C4225.45 1566.93 4288.41 1575.72 4306.03 1600.66C4306.03 1600.66 4334.99 1628.5 4319.87 1720.78C4319.87 1720.82 4278.31 1955.25 4212.86 2098.83V2098.83Z" fill="#F3971B"/>
<path d="M4171.49 1727.72C4171.49 1727.72 4202.13 1773.93 4152.69 1813.79C4152.69 1813.79 3624.46 2305.58 2737.52 2305.58C2737.52 2305.58 1824.53 2358 1062.18 1551.79C1062.18 1551.79 1035.46 1524.48 1052.05 1499.09C1052.05 1499.09 1066.88 1475.73 1105.28 1501.14C1105.28 1501.14 1822.42 2021.26 2764.26 2021.26C2764.26 2021.26 3418.91 2050.76 4090.45 1716.48C4090.45 1716.48 4143.95 1684.21 4171.49 1727.72Z" fill="#F3971B"/>
</svg>
