<svg width="6735" height="2171" viewBox="0 0 6735 2171" fill="none" xmlns="http://www.w3.org/2000/svg">
<path d="M1511.99 532.572V1204.38C1511.99 1215.27 1507.95 1225.72 1500.77 1233.42C1493.58 1241.12 1483.83 1245.44 1473.67 1245.44H1275.77C1265.61 1245.44 1255.87 1241.11 1248.69 1233.41C1241.5 1225.71 1237.46 1215.27 1237.46 1204.38V111.65C1237.46 100.76 1241.5 90.3159 1248.68 82.6156C1255.87 74.9153 1265.61 70.5893 1275.77 70.5893H1458.91C1469.07 70.5893 1478.81 74.9153 1486 82.6156C1493.19 90.3159 1497.22 100.76 1497.22 111.65V265.535C1497.22 265.535 1562.69 46.022 1756.97 46.022C1756.97 46.022 1949.14 21.1287 2027.27 249.694C2027.27 249.694 2092.74 46.022 2291.24 46.022C2291.24 46.022 2586.45 27.2117 2586.45 354.554L2588.7 534.835V1206.65C2588.7 1217.54 2584.66 1227.98 2577.48 1235.68C2570.29 1243.38 2560.54 1247.71 2550.38 1247.71H2352.47C2342.31 1247.7 2332.56 1243.37 2325.38 1235.67C2318.2 1227.97 2314.16 1217.53 2314.15 1206.65L2312.34 473.733C2317.97 307.772 2192.68 319.848 2192.68 319.848C2035.01 322.871 2050.18 534.835 2050.18 534.835V1206.65C2050.18 1217.54 2046.15 1227.98 2038.96 1235.68C2031.77 1243.38 2022.03 1247.71 2011.87 1247.71H1813.97C1803.81 1247.7 1794.07 1243.37 1786.88 1235.67C1779.7 1227.97 1775.66 1217.53 1775.65 1206.65V490.317C1775.65 490.317 1787.23 318.327 1646.43 318.327C1646.45 318.327 1507.07 298.72 1511.99 532.572V532.572ZM6613.24 530.562V1202.35C6613.24 1213.24 6609.2 1223.68 6602.01 1231.38C6594.83 1239.08 6585.09 1243.41 6574.93 1243.41L6369.1 1247.69C6358.94 1247.68 6349.2 1243.36 6342.02 1235.66C6334.83 1227.96 6330.79 1217.52 6330.79 1206.63V490.317C6330.79 490.317 6342.36 318.327 6201.58 318.327C6201.58 318.327 6067.12 311.23 6067.12 580.892V1204.36C6067.12 1215.25 6063.08 1225.69 6055.9 1233.39C6048.71 1241.09 6038.97 1245.42 6028.81 1245.42H5830.89C5820.73 1245.42 5810.99 1241.09 5803.8 1233.39C5796.62 1225.69 5792.58 1215.25 5792.58 1204.36V111.65C5792.58 100.761 5796.62 90.3202 5803.8 82.6209C5810.99 74.9217 5820.73 70.5941 5830.89 70.5893H6014.02C6024.19 70.5893 6033.93 74.9153 6041.12 82.6156C6048.3 90.3159 6052.34 100.76 6052.34 111.65V265.535C6052.34 265.535 6117.81 46.022 6312.09 46.022C6312.09 46.022 6520.21 12.1853 6590.3 245.44C6590.32 245.421 6613.24 293.542 6613.24 530.562ZM5184.34 41.4959C4931.27 41.4959 4726.09 270.061 4726.09 654.775C4726.09 993.486 4884.47 1268.05 5184.34 1268.05C5467.32 1268.05 5642.59 993.486 5642.59 654.775C5642.59 276.85 5437.43 41.4959 5184.34 41.4959V41.4959ZM5344.07 668.353C5344.07 813.187 5327.18 890.13 5327.18 890.13C5303.14 1043.24 5199.43 1043.45 5184.14 1042.64C5167.63 1043.35 5063.04 1041.75 5041.4 890.13C5041.4 890.13 5024.5 813.187 5024.5 668.353V644.22C5024.5 499.387 5041.4 422.444 5041.4 422.444C5063.04 270.822 5167.65 269.229 5184.14 269.916C5199.43 269.102 5303.14 269.301 5327.18 422.444C5327.18 422.444 5344.07 499.387 5344.07 644.22V668.353ZM4611.22 264.014V107.232C4611.22 96.3438 4607.18 85.9028 4600 78.2035C4592.81 70.5042 4583.07 66.1767 4572.91 66.1719H3918.77C3908.61 66.1719 3898.86 70.4979 3891.68 78.1982C3884.49 85.8985 3880.45 96.3424 3880.45 107.232V262.802C3880.46 273.69 3884.5 284.131 3891.68 291.83C3898.87 299.529 3908.61 303.857 3918.77 303.862H4259.98L3856.11 931.715C3856.11 931.715 3840.2 957.169 3840.72 985.285V1176.27C3840.72 1176.27 3838.08 1241.75 3907.38 1203.75C3907.38 1203.75 4030.47 1124.05 4236.87 1124.05C4236.87 1124.05 4440.7 1121.34 4576.59 1210.61C4576.59 1210.61 4633 1238.09 4633 1177.66V1011.43C4633 1011.43 4638.12 967.435 4584.28 939.97C4584.28 939.97 4427.87 847.929 4222.76 863.028L4611.22 264.014ZM1084.72 1050.03L1022.77 948.968C1003.05 911.239 1004.47 868.984 1004.47 868.984V402.819C1012.92 0.00111412 596.193 34.7069 596.193 34.7069C225.739 34.7069 171.019 343.655 171.019 343.655C155.578 405.77 200.483 407.273 200.483 407.273L381.503 426.952C381.503 426.952 412.368 434.52 423.603 395.143C423.603 395.143 447.44 260.357 580.752 260.357C725.804 260.357 724.301 393.767 724.301 393.767V505.452C434.736 515.826 300.546 601.965 300.546 601.965C121.756 710.59 133.008 926.338 133.008 926.338C133.008 1277.85 445.548 1262.75 445.548 1262.75C645.456 1262.75 763.715 1105.86 763.715 1105.86C798.905 1172.27 863.677 1235.59 863.677 1235.59C896.08 1273.25 929.851 1241.64 929.851 1241.64L1076.27 1107.38C1108.64 1081.71 1084.72 1050.03 1084.72 1050.03ZM543.112 1045.68C449.079 1045.68 414.125 945.547 429.736 847.132C445.363 748.718 526.522 671.377 724.318 673.64V733.474C731.329 994.862 621.382 1045.68 543.112 1045.68ZM3714.55 1050.03L3652.62 948.968C3632.9 911.239 3634.31 868.984 3634.31 868.984V402.819C3642.75 0.00111412 3226.03 34.7069 3226.03 34.7069C2855.57 34.7069 2800.85 343.655 2800.85 343.655C2785.41 405.77 2830.32 407.273 2830.32 407.273L3011.34 426.952C3011.34 426.952 3042.2 434.52 3053.44 395.143C3053.44 395.143 3077.28 260.357 3210.59 260.357C3355.64 260.357 3354.14 393.767 3354.14 393.767V505.452C3064.59 515.826 2930.38 601.965 2930.38 601.965C2751.59 710.59 2762.84 926.338 2762.84 926.338C2762.84 1277.85 3075.38 1262.75 3075.38 1262.75C3275.29 1262.75 3393.55 1105.86 3393.55 1105.86C3428.76 1172.27 3493.49 1235.59 3493.49 1235.59C3525.9 1273.25 3559.69 1241.64 3559.69 1241.64L3706.09 1107.38C3738.48 1081.71 3714.55 1050.03 3714.55 1050.03V1050.03ZM3172.95 1045.68C3078.91 1045.68 3043.96 945.547 3059.57 847.132C3075.2 748.718 3156.36 671.377 3354.14 673.64V733.474C3361.16 994.862 3251.23 1045.68 3172.95 1045.68Z" fill="white"/>
<path d="M4212.86 1932.39C4212.86 1932.39 4196.31 1963.25 4216.65 1970.15C4216.65 1970.15 4239.62 1979.76 4268.28 1951.27C4268.28 1951.27 4477.24 1755.65 4482.27 1399.51C4482.27 1399.51 4483.81 1355.03 4467.15 1342.86C4467.15 1342.86 4401.69 1280.8 4166.29 1299.68C4166.29 1299.68 3961.09 1314.53 3849.07 1421.11C3849.07 1421.11 3839 1430.54 3839 1442.67C3839 1442.67 3836.58 1468.86 3898.16 1457.51C3898.16 1457.51 4103.34 1426.46 4225.45 1442.67C4225.45 1442.67 4288.41 1450.76 4306.03 1473.72C4306.03 1473.72 4334.99 1499.35 4319.87 1584.31C4319.87 1584.35 4278.31 1800.19 4212.86 1932.39V1932.39Z" fill="#F3971B"/>
<path d="M4171.49 1590.71C4171.49 1590.71 4202.13 1633.25 4152.69 1669.95C4152.69 1669.95 3624.46 2122.73 2737.52 2122.73C2737.52 2122.73 1824.53 2171 1062.18 1428.73C1062.18 1428.73 1035.46 1403.58 1052.05 1380.21C1052.05 1380.21 1066.88 1358.7 1105.28 1382.09C1105.28 1382.09 1822.42 1860.96 2764.26 1860.96C2764.26 1860.96 3418.91 1888.12 4090.45 1580.35C4090.45 1580.35 4143.95 1550.64 4171.49 1590.71Z" fill="#F3971B"/>
</svg>
